<svg xmlns="http://www.w3.org/2000/svg" viewBox="0 0 75 75" width="75" height="75" preserveAspectRatio="xMidYMid meet" style="width: 100%; height: 100%; transform: translate3d(0px, 0px, 0px);"><defs><clipPath id="__lottie_element_3"><rect width="75" height="75" x="0" y="0"></rect></clipPath><clipPath id="__lottie_element_12"><path fill="#ffffff" clip-rule="nonzero" d=" M0,-27.381999969482422 C-15.123000144958496,-27.381999969482422 -27.381999969482422,-15.123000144958496 -27.381999969482422,0 C-27.381999969482422,15.123000144958496 -15.123000144958496,27.381999969482422 0,27.381999969482422 C15.123000144958496,27.381999969482422 27.381999969482422,15.123000144958496 27.381999969482422,0 C27.381999969482422,-15.123000144958496 15.123000144958496,-27.381999969482422 0,-27.381999969482422" fill-opacity="1"></path></clipPath><clipPath id="__lottie_element_15"><path fill="#ffffff" clip-rule="nonzero" d=" M0,-27.381999969482422 C-15.123000144958496,-27.381999969482422 -27.381999969482422,-15.123000144958496 -27.381999969482422,0 C-27.381999969482422,15.123000144958496 -15.123000144958496,27.381999969482422 0,27.381999969482422 C15.123000144958496,27.381999969482422 27.381999969482422,15.123000144958496 27.381999969482422,0 C27.381999969482422,-15.123000144958496 15.123000144958496,-27.381999969482422 0,-27.381999969482422" fill-opacity="1"></path></clipPath></defs><g clip-path="url(#__lottie_element_3)"><g clip-path="url(#__lottie_element_15)" transform="matrix(1,0,0,1,43.625,33)" opacity="1" style="display: block;"><path stroke-linecap="butt" stroke-linejoin="miter" fill-opacity="0" stroke-miterlimit="4" stroke="rgb(235,224,212)" stroke-opacity="1" stroke-width="0" d=" M0,-17.93184471130371 C9.896585464477539,-17.93184471130371 17.93184471130371,-9.896585464477539 17.93184471130371,0 C17.93184471130371,9.896585464477539 9.896585464477539,17.93184471130371 0,17.93184471130371 C-9.896585464477539,17.93184471130371 -17.93184471130371,9.896585464477539 -17.93184471130371,0 C-17.93184471130371,-9.896585464477539 -9.896585464477539,-17.93184471130371 0,-17.93184471130371z"></path></g><g clip-path="url(#__lottie_element_12)" transform="matrix(1,0,0,1,43.625,33)" opacity="1" style="display: block;"><path stroke-linecap="butt" stroke-linejoin="miter" fill-opacity="0" stroke-miterlimit="4" stroke="rgb(51,50,57)" stroke-opacity="1" stroke-width="0" d=" M0,-18.152746200561523 C10.018500328063965,-18.152746200561523 18.152746200561523,-10.018500328063965 18.152746200561523,0 C18.152746200561523,10.018500328063965 10.018500328063965,18.152746200561523 0,18.152746200561523 C-10.018500328063965,18.152746200561523 -18.152746200561523,10.018500328063965 -18.152746200561523,0 C-18.152746200561523,-10.018500328063965 -10.018500328063965,-18.152746200561523 0,-18.152746200561523z"></path></g><g transform="matrix(1.100000023841858,0,0,1.100000023841858,37.5,37.5)" opacity="1" style="display: none;"><g opacity="1" transform="matrix(1,0,0,1,0,0)"><path fill="rgb(255,79,0)" fill-opacity="1" d=" M15.975000381469727,-3.4189999103546143 C15.975000381469727,-3.4189999103546143 8.861000061035156,-15.906000137329102 8.861000061035156,-15.906000137329102 C8.8100004196167,-15.994999885559082 8.696000099182129,-16.027000427246094 8.607999801635742,-15.975000381469727 C8.607999801635742,-15.975000381469727 -3.7139999866485596,-8.765000343322754 -3.7139999866485596,-8.765000343322754 C-3.7829999923706055,-8.725000381469727 -3.819000005722046,-8.645000457763672 -3.802999973297119,-8.565999984741211 C-3.802999973297119,-8.565999984741211 0.19200000166893005,11.218999862670898 0.19200000166893005,11.218999862670898 C0.19200000166893005,11.218999862670898 -0.3930000066757202,11.887999534606934 -0.3930000066757202,11.887999534606934 C-1.375,13.010000228881836 -2.2049999237060547,13.616999626159668 -3.7860000133514404,13.616999626159668 C-5.558000087738037,13.616999626159668 -6.389999866485596,12.670000076293945 -7.708000183105469,10.996999740600586 C-9.260000228881836,9.026000022888184 -11.187000274658203,6.578999996185303 -15.810999870300293,6.513999938964844 C-15.913999557495117,6.51200008392334 -16,6.5980000495910645 -16,6.703000068664551 C-16,6.703000068664551 -16,8.711000442504883 -16,8.711000442504883 C-16,8.812999725341797 -15.918000221252441,8.895000457763672 -15.817000389099121,8.897000312805176 C-12.324999809265137,8.954999923706055 -10.973999977111816,10.670000076293945 -9.545999526977539,12.484000205993652 C-8.248000144958496,14.131999969482422 -6.776000022888184,16 -3.7860000133514404,16 C-1.2039999961853027,16 0.2150000035762787,14.784000396728516 1.3660000562667847,13.468999862670898 C1.3660000562667847,13.468999862670898 5.610000133514404,8.619000434875488 5.610000133514404,8.619000434875488 C5.610000133514404,8.619000434875488 5.611000061035156,8.618000030517578 5.611000061035156,8.618000030517578 C5.611000061035156,8.618000030517578 15.954000473022461,-3.2009999752044678 15.954000473022461,-3.2009999752044678 C16.006999969482422,-3.260999917984009 16.014999389648438,-3.3489999771118164 15.975000381469727,-3.4189999103546143"></path></g></g><g style="display: block;" transform="matrix(1.000826120376587,0,0,1.000826120376587,37.5,37.5)" opacity="1"><g opacity="1" transform="matrix(1,0,0,1,0,0)"><path fill="rgb(255,79,0)" fill-opacity="1" d=" M15.975000381469727,-3.4189999103546143 C15.975000381469727,-3.4189999103546143 8.861000061035156,-15.906000137329102 8.861000061035156,-15.906000137329102 C8.8100004196167,-15.994999885559082 8.696000099182129,-16.027000427246094 8.607999801635742,-15.975000381469727 C8.607999801635742,-15.975000381469727 -3.7139999866485596,-8.765000343322754 -3.7139999866485596,-8.765000343322754 C-3.7829999923706055,-8.725000381469727 -3.819000005722046,-8.645000457763672 -3.802999973297119,-8.565999984741211 C-3.802999973297119,-8.565999984741211 0.19200000166893005,11.218999862670898 0.19200000166893005,11.218999862670898 C0.19200000166893005,11.218999862670898 -0.3930000066757202,11.887999534606934 -0.3930000066757202,11.887999534606934 C-1.375,13.010000228881836 -2.2049999237060547,13.616999626159668 -3.7860000133514404,13.616999626159668 C-5.558000087738037,13.616999626159668 -6.389999866485596,12.670000076293945 -7.708000183105469,10.996999740600586 C-9.260000228881836,9.026000022888184 -11.187000274658203,6.578999996185303 -15.810999870300293,6.513999938964844 C-15.913999557495117,6.51200008392334 -16,6.5980000495910645 -16,6.703000068664551 C-16,6.703000068664551 -16,8.711000442504883 -16,8.711000442504883 C-16,8.812999725341797 -15.918000221252441,8.895000457763672 -15.817000389099121,8.897000312805176 C-12.324999809265137,8.954999923706055 -10.973999977111816,10.670000076293945 -9.545999526977539,12.484000205993652 C-8.248000144958496,14.131999969482422 -6.776000022888184,16 -3.7860000133514404,16 C-1.2039999961853027,16 0.2150000035762787,14.784000396728516 1.3660000562667847,13.468999862670898 C1.3660000562667847,13.468999862670898 5.610000133514404,8.619000434875488 5.610000133514404,8.619000434875488 C5.610000133514404,8.619000434875488 5.611000061035156,8.618000030517578 5.611000061035156,8.618000030517578 C5.611000061035156,8.618000030517578 15.954000473022461,-3.2009999752044678 15.954000473022461,-3.2009999752044678 C16.006999969482422,-3.260999917984009 16.014999389648438,-3.3489999771118164 15.975000381469727,-3.4189999103546143"></path></g></g></g></svg>