<svg xmlns="http://www.w3.org/2000/svg" viewBox="0 0 32.03 32.03"><defs><style>.cls-1{fill:#ff4f00;}</style></defs><title>Recurso 1</title><g id="Capa_2" data-name="Capa 2"><g id="Capa_1-2" data-name="Capa 1"><path class="cls-1" d="M32,12.59,24.88.09A.18.18,0,0,0,24.63,0L12.3,7.24a.18.18,0,0,0-.09.2l4,19.8-.59.67a4,4,0,0,1-3.4,1.73c-1.77,0-2.6-.95-3.92-2.62-1.55-2-3.48-4.42-8.11-4.49a.2.2,0,0,0-.19.19v2a.19.19,0,0,0,.18.19C3.68,25,5,26.69,6.46,28.51,7.76,30.16,9.23,32,12.22,32a6.35,6.35,0,0,0,5.16-2.54l4.25-4.85h0L32,12.81a.2.2,0,0,0,0-.22"/></g></g></svg>